<svg xmlns="http://www.w3.org/2000/svg" xmlns:xlink="http://www.w3.org/1999/xlink" viewBox="0 0 234.1 233.35"><defs><style>.cls-1{fill:#cc4c2f;}.cls-2{fill:#fff;}</style></defs><title>crafted-with-care</title><g id="image_paste" data-name="image paste"><image width="225" height="225" transform="translate(5.02 3.81)" xlink:href="../../craftedwithcare.png"/></g><g id="circle"><circle class="cls-1" cx="117.52" cy="116.31" r="112.5"/></g><g id="froms"><path class="cls-2" d="M124.65,116.31S92.56,105.16,80.78,84.86s3.27-34.7,3.27-34.7,18.34-20.95,40.6,0"/><path class="cls-2" d="M124.62,116.31s32.08-11.15,43.87-31.45-3.27-34.7-3.27-34.7-18.34-20.95-40.6,0"/><rect class="cls-2" x="40.39" y="162.46" width="47.09" height="17.65" rx="4.51" ry="4.51" transform="translate(139.85 4.96) rotate(45)"/><path class="cls-2" d="M85.79,174l-25-25.25s22.88-27.62,32.88-27.1,52.87,3.42,52.87,3.42,6.57.79,6,9.21-4.78,8.42-4.78,8.42l-41.1-.27s-2,3.42,0,3.95,41.1-.26,41.1-.26,7.94-3.42,8.2-11-1.78-5.52-7.2-12.1l15.88-15.52s6.58-5,14.21,1.58-3.42,17.89-3.42,17.89l-30.78,33.4-46,3.42S94.73,163.22,85.79,174Z"/></g></svg>