<svg xmlns="http://www.w3.org/2000/svg" viewBox="0 0 263.71 102.53"><defs><style>.cls-1{fill:#247ba0;}.cls-2{fill:#f95c39;}.cls-3{fill:#297d9f;}</style></defs><title>logo-online-v4</title><g id="header"><path class="cls-1" d="M229.56,62.78a12.24,12.24,0,0,0,6.17,1.44c4.22,0,7.1-1.61,7.1-5.25,0-3.39-2.51-4.45-5.63-5.1l-.82-.18c-2.19-.44-3.43-.92-3.43-2.43S234.19,49,236.69,49a9.77,9.77,0,0,1,5.52,1.54V47.21a14.24,14.24,0,0,0-5.35-1c-4.22,0-7.1,1.55-7.1,5.15,0,3.36,2.51,4.42,5.63,5.07l.82.17c2.19.45,3.43.93,3.43,2.44s-1.2,2.4-3.77,2.4a10.31,10.31,0,0,1-6.31-2ZM224,42.21h-3.16V59.35c0,3.16,1.58,4.73,4.63,4.73a6.08,6.08,0,0,0,2.06-.31V61a4.18,4.18,0,0,1-1.65.31c-1.23,0-1.88-.45-1.88-2.09Zm-15,19.4c-2.6,0-3.8-.85-3.8-2.4,0-1.71,1.44-2.5,3.49-2.84l4.08-.69V61.1a13.55,13.55,0,0,1-3.77.51m6.93-9.56c0-4.08-3.12-5.8-7.27-5.8a10.44,10.44,0,0,0-5.18,1.2v3.33A7.67,7.67,0,0,1,208.57,49c2.68,0,4.15,1.09,4.15,3.36v.82l-4.39.69c-3.73.58-6.3,1.85-6.3,5.24,0,3.64,2.91,5.11,7,5.11a17.45,17.45,0,0,0,3.7-.41h3.19Zm-27.26-9.84V57c0,5,2.37,7.23,6.86,7.23a10.69,10.69,0,0,0,4.08-.75V60.31a6.58,6.58,0,0,1-3.74,1.1c-2.61,0-4-1.2-4-4.7v-7.2h8V46.67h-8V42.21Zm-9.84,7.64V46.67h-3.15V63.81h3.15V55.89c0-5,2.13-6.28,5.86-6.28H186V46.67h-1.34c-3.49,0-5,1.37-5.69,3.18Zm-15.17-3.6c-4.83,0-8.16,3.12-8.16,9s3.33,9,8.16,9,8.16-3.12,8.16-9-3.32-9-8.16-9m0,15.23c-3.32,0-4.94-2.47-4.94-6.24S160.29,49,163.61,49s4.94,2.47,4.94,6.24-1.61,6.24-4.94,6.24m-14.38-6.24c0,3.6-1.64,6.24-5.93,6.24a9.18,9.18,0,0,1-2.6-.38V49.41a8,8,0,0,1,2.6-.41c4.29,0,5.93,2.64,5.93,6.24m-8.53,8.53a12,12,0,0,0,3.29.45c5.21,0,8.47-3.43,8.47-9s-3.26-9-8.47-9a13.53,13.53,0,0,0-3.29.42h-3.16V68.34h3.16Z"/><path class="cls-2" d="M127.56,68.34V63.81c4.12-4.22,6.07-10.05,6.31-17.14h-3.05c-.17,6-1.58,10.62-4.7,14.6H126c-3.12-4-4.53-8.64-4.7-14.6H118.1c.24,7.09,2.2,12.92,6.31,17.14v4.53Zm-24.82-13.1c0-3.6,1.65-6.24,5.93-6.24a9.2,9.2,0,0,1,2.61.37v11.7a8.25,8.25,0,0,1-2.61.41c-4.28,0-5.93-2.64-5.93-6.24m8.54-8.54a12,12,0,0,0-3.29-.45c-5.21,0-8.47,3.43-8.47,9s3.26,9,8.47,9a14.23,14.23,0,0,0,3.29-.41h3.15V42.21h-3.15Zm-15.87,0H92.25V61.1a13.41,13.41,0,0,1-3.22.38c-4.32,0-4.73-2-4.73-5.66V46.67H81.14v9.42c0,5,1.24,8.13,7.2,8.13a19.1,19.1,0,0,0,3.91-.41h3.16ZM66.54,42.21V57c0,5,2.36,7.23,6.85,7.23a10.62,10.62,0,0,0,4.08-.75V60.31a6.53,6.53,0,0,1-3.73,1.1c-2.61,0-4-1.2-4-4.7v-7.2h8V46.67h-8V42.21ZM49.43,62.78a12.24,12.24,0,0,0,6.17,1.44c4.22,0,7.1-1.61,7.1-5.25,0-3.39-2.51-4.45-5.63-5.1l-.82-.18c-2.19-.44-3.43-.92-3.43-2.43S54.06,49,56.56,49a9.77,9.77,0,0,1,5.52,1.54V47.21a14.2,14.2,0,0,0-5.35-1c-4.22,0-7.1,1.55-7.1,5.15,0,3.36,2.51,4.42,5.63,5.07l.82.17c2.19.45,3.43.93,3.43,2.44s-1.2,2.4-3.77,2.4a10.31,10.31,0,0,1-6.31-2Z"/><path class="cls-1" d="M1.63,45.09v1.53H4.36V63.81H7.57V46h0a44,44,0,0,1,9.67-1.85V63.81h4V44.1A43.15,43.15,0,0,1,31,45.93l0,0V63.81h3.21V46.63H36.9V45.09S28.2,41,19.23,41,1.63,45.09,1.63,45.09Z"/><path class="cls-2" d="M36.93,43.45S28.39,39.3,19.26,39.3,1.61,43.45,1.61,43.45V40.6l17.66-5.88,17.65,5.87Z"/><rect class="cls-1" x="1.63" y="65.5" width="35.31" height="2.91"/><path class="cls-3" d="M137.31,79.52a7,7,0,0,1-1.57,4.88,6.59,6.59,0,0,1-8.91,0,7.06,7.06,0,0,1-1.56-4.91,6.92,6.92,0,0,1,1.57-4.88,5.77,5.77,0,0,1,4.48-1.71,5.69,5.69,0,0,1,4.43,1.73A7,7,0,0,1,137.31,79.52Zm-9.81,0a5.76,5.76,0,0,0,1,3.6,3.88,3.88,0,0,0,5.66,0,5.72,5.72,0,0,0,1-3.61,5.77,5.77,0,0,0-1-3.58,3.33,3.33,0,0,0-2.81-1.23,3.43,3.43,0,0,0-2.86,1.23A5.7,5.7,0,0,0,127.5,79.52Z"/><path class="cls-3" d="M148.4,86h-2.07V80a2.63,2.63,0,0,0-.45-1.68,1.77,1.77,0,0,0-1.44-.55,2.28,2.28,0,0,0-1.92.77,4.29,4.29,0,0,0-.6,2.59V86h-2.07V76.24h1.62l.29,1.28h.1a2.92,2.92,0,0,1,1.25-1.07,4.08,4.08,0,0,1,1.79-.38c2.34,0,3.5,1.18,3.5,3.56Z"/><path class="cls-3" d="M153.34,86h-2.06V72.29h2.06Z"/><path class="cls-3" d="M156.17,73.67a1.14,1.14,0,0,1,.3-.85,1.19,1.19,0,0,1,.87-.3,1.16,1.16,0,0,1,.85.3,1.14,1.14,0,0,1,.3.85,1.13,1.13,0,0,1-.3.83,1.16,1.16,0,0,1-.85.3,1.19,1.19,0,0,1-.87-.3A1.13,1.13,0,0,1,156.17,73.67ZM158.36,86h-2.07V76.24h2.07Z"/><path class="cls-3" d="M169.86,86h-2.07V80a2.63,2.63,0,0,0-.45-1.68,1.74,1.74,0,0,0-1.44-.55,2.29,2.29,0,0,0-1.92.77,4.29,4.29,0,0,0-.6,2.59V86h-2.07V76.24h1.62l.29,1.28h.11a2.83,2.83,0,0,1,1.24-1.07,4.09,4.09,0,0,1,1.8-.38c2.33,0,3.49,1.18,3.49,3.56Z"/><path class="cls-3" d="M177,86.14a4.69,4.69,0,0,1-3.54-1.32,5,5,0,0,1-1.28-3.65,5.52,5.52,0,0,1,1.18-3.74,4.11,4.11,0,0,1,3.27-1.36,4,4,0,0,1,3,1.17,4.47,4.47,0,0,1,1.11,3.21v1.12h-6.47a3.17,3.17,0,0,0,.76,2.18,2.69,2.69,0,0,0,2,.76,7.34,7.34,0,0,0,1.6-.17,7.94,7.94,0,0,0,1.6-.54v1.68a6.26,6.26,0,0,1-1.53.51A9.35,9.35,0,0,1,177,86.14Zm-.37-8.51a2.06,2.06,0,0,0-1.58.63,3,3,0,0,0-.71,1.82h4.41a2.67,2.67,0,0,0-.58-1.83A2,2,0,0,0,176.61,77.63Z"/><path class="cls-3" d="M193.47,74.73A3.47,3.47,0,0,0,190.62,76a5.47,5.47,0,0,0-1,3.54,5.53,5.53,0,0,0,1,3.57,3.54,3.54,0,0,0,2.89,1.22,8.14,8.14,0,0,0,1.58-.16q.76-.16,1.59-.42v1.8a9.62,9.62,0,0,1-3.42.57,5.5,5.5,0,0,1-4.34-1.71,7.19,7.19,0,0,1-1.51-4.89,7.89,7.89,0,0,1,.74-3.51,5.14,5.14,0,0,1,2.12-2.3,6.43,6.43,0,0,1,3.26-.8,8.14,8.14,0,0,1,3.64.83l-.76,1.75A11.18,11.18,0,0,0,195,75,5.2,5.2,0,0,0,193.47,74.73Z"/><path class="cls-3" d="M207.82,81.09a5.27,5.27,0,0,1-1.23,3.71,4.33,4.33,0,0,1-3.4,1.34,4.67,4.67,0,0,1-2.41-.61,4.11,4.11,0,0,1-1.6-1.77,6,6,0,0,1-.57-2.67,5.25,5.25,0,0,1,1.22-3.69,4.36,4.36,0,0,1,3.42-1.33,4.26,4.26,0,0,1,3.33,1.36A5.19,5.19,0,0,1,207.82,81.09Zm-7.08,0q0,3.36,2.49,3.36t2.46-3.36c0-2.22-.83-3.33-2.48-3.33a2.11,2.11,0,0,0-1.89.86A4.36,4.36,0,0,0,200.74,81.09Z"/><path class="cls-3" d="M217,86l-.29-1.27h-.1a2.91,2.91,0,0,1-1.23,1.06,4,4,0,0,1-1.81.39,3.55,3.55,0,0,1-2.64-.88,3.63,3.63,0,0,1-.87-2.66V76.24h2.08v6a2.62,2.62,0,0,0,.46,1.67,1.75,1.75,0,0,0,1.43.56,2.3,2.3,0,0,0,1.92-.78,4.32,4.32,0,0,0,.61-2.6V76.24h2.07V86Z"/><path class="cls-3" d="M226.54,76.07a4.85,4.85,0,0,1,1,.09l-.2,1.92a3.91,3.91,0,0,0-.91-.1,2.63,2.63,0,0,0-2,.8,2.94,2.94,0,0,0-.77,2.1V86h-2.07V76.24h1.62L223.5,78h.11a3.82,3.82,0,0,1,1.26-1.38A3,3,0,0,1,226.54,76.07Z"/><path class="cls-3" d="M235.91,83.2a2.54,2.54,0,0,1-1,2.18,4.94,4.94,0,0,1-3,.76,7,7,0,0,1-3.12-.59V83.77a7.74,7.74,0,0,0,3.19.79c1.27,0,1.91-.39,1.91-1.15a.94.94,0,0,0-.22-.62,2.67,2.67,0,0,0-.69-.51,14.09,14.09,0,0,0-1.35-.6,6.19,6.19,0,0,1-2.27-1.3,2.41,2.41,0,0,1-.59-1.68,2.19,2.19,0,0,1,1-1.94,4.76,4.76,0,0,1,2.73-.69,7.8,7.8,0,0,1,3.25.69l-.67,1.56a7.09,7.09,0,0,0-2.65-.65c-1.09,0-1.63.31-1.63.93a.94.94,0,0,0,.42.77,9.85,9.85,0,0,0,1.86.87,8.06,8.06,0,0,1,1.75.86,2.35,2.35,0,0,1,.81.89A2.52,2.52,0,0,1,235.91,83.2Z"/><path class="cls-3" d="M242.38,86.14a4.69,4.69,0,0,1-3.54-1.32,5,5,0,0,1-1.28-3.65,5.52,5.52,0,0,1,1.18-3.74A4.11,4.11,0,0,1,242,76.07a4,4,0,0,1,3.05,1.17,4.47,4.47,0,0,1,1.11,3.21v1.12h-6.48a3.23,3.23,0,0,0,.77,2.18,2.69,2.69,0,0,0,2,.76,7.34,7.34,0,0,0,1.6-.17,7.94,7.94,0,0,0,1.6-.54v1.68a6.4,6.4,0,0,1-1.53.51A9.43,9.43,0,0,1,242.38,86.14ZM242,77.63a2,2,0,0,0-1.57.63,3,3,0,0,0-.71,1.82h4.41a2.67,2.67,0,0,0-.58-1.83A2,2,0,0,0,242,77.63Z"/><path class="cls-3" d="M255,83.2a2.54,2.54,0,0,1-1,2.18,4.94,4.94,0,0,1-3,.76,7.08,7.08,0,0,1-3.12-.59V83.77a7.78,7.78,0,0,0,3.19.79c1.27,0,1.91-.39,1.91-1.15a.93.93,0,0,0-.21-.62,2.58,2.58,0,0,0-.7-.51c-.32-.17-.77-.37-1.34-.6a6,6,0,0,1-2.27-1.3,2.37,2.37,0,0,1-.6-1.68,2.22,2.22,0,0,1,1-1.94,4.77,4.77,0,0,1,2.74-.69,7.79,7.79,0,0,1,3.24.69l-.67,1.56a7.09,7.09,0,0,0-2.64-.65c-1.09,0-1.64.31-1.64.93a.93.93,0,0,0,.43.77,9.23,9.23,0,0,0,1.86.87,8.57,8.57,0,0,1,1.75.86,2.53,2.53,0,0,1,.81.89A2.64,2.64,0,0,1,255,83.2Z"/></g></svg>