<?xml version="1.0" standalone="no"?>
<svg id="Layer_1" xmlns="http://www.w3.org/2000/svg" viewBox="0 0 627 98">
  <style>
    .st0{fill:#247BA0;} .st1{fill:#F95C39;}
  </style>
  <path class="st0" d="M581.3 76.9c3.8 2.4 9.7 3.6 15.4 3.6 10.5 0 17.7-4 17.7-13.1 0-8.5-6.2-11.1-14-12.7l-2.1-.4c-5.5-1.1-8.6-2.3-8.6-6.1 0-3.6 3.1-5.6 9.3-5.6 5.8 0 10.8 1.7 13.8 3.8v-8.3c-3.5-1.5-8.5-2.4-13.3-2.4-10.5 0-17.7 3.8-17.7 12.8 0 8.4 6.2 11 14 12.7l2.1.4c5.5 1.1 8.6 2.3 8.6 6.1 0 3.7-3 6-9.4 6-6.8.1-12.5-2.4-15.7-5l-.1 8.2zm-13.9-51.3h-7.9v42.8c0 7.9 3.9 11.8 11.5 11.8 2 0 3.7-.3 5.1-.8v-6.8c-1.2.5-2.7.8-4.1.8-3.1 0-4.7-1.1-4.7-5.2V25.6h.1zM529.9 74c-6.5 0-9.5-2.1-9.5-6 0-4.3 3.6-6.2 8.7-7.1l10.2-1.7v13.5c-1.6.6-5.7 1.3-9.4 1.3m17.3-23.9c0-10.2-7.8-14.5-18.1-14.5-5 0-9.6 1-12.9 3v8.3c2.8-2.5 7.1-4.4 12.8-4.4 6.7 0 10.4 2.7 10.4 8.4V53l-10.9 1.7c-9.3 1.5-15.7 4.6-15.7 13.1 0 9.1 7.3 12.7 17.4 12.7 3.4 0 6.4-.4 9.2-1h8V50.1h-.2zm-68-24.5v36.9c0 12.5 5.9 18.1 17.1 18.1 3.3 0 7-.5 10.2-1.9v-7.9c-2.7 1.8-5.7 2.7-9.3 2.7-6.5 0-10.1-3-10.1-11.7v-18h19.8v-7.1h-19.8V25.6h-7.9zm-24.6 19.2v-8h-7.9v42.8h7.9V59.8c0-12.4 5.3-15.7 14.6-15.7h3.3v-7.4h-3.3c-8.7 0-12.6 3.4-14.2 8h-.4v.1zm-37.8-9.1c-12.1 0-20.4 7.8-20.4 22.4s8.3 22.4 20.4 22.4 20.4-7.8 20.4-22.4c-.1-14.6-8.4-22.4-20.4-22.4m0 38.1c-8.3 0-12.3-6.2-12.3-15.6 0-9.4 4-15.6 12.3-15.6s12.3 6.2 12.3 15.6c0 9.3-4 15.6-12.3 15.6m-35.9-15.7c0 9-4.1 15.6-14.8 15.6-2.3 0-4.4-.3-6.5-.9V43.6c2.1-.7 4.2-1 6.5-1 10.7-.1 14.8 6.5 14.8 15.5m-21.3 21.3c1.8.5 4.7 1.1 8.2 1.1 13 0 21.1-8.6 21.1-22.4 0-13.9-8.1-22.4-21.1-22.4-3.5 0-6.4.6-8.2 1h-7.9v54.1h7.9V79.4z"/>
  <path class="st1" d="M326.8 90.8V79.5c10.3-10.5 15.1-25.1 15.7-42.8H335c-.4 14.9-3.9 26.5-11.7 36.4h-.3c-7.8-9.9-11.3-21.6-11.7-36.4h-8c.6 17.7 5.5 32.3 15.7 42.8v11.3h7.8zm-61.9-32.7c0-9 4.1-15.6 14.8-15.6 2.3 0 4.4.3 6.5.9v29.2c-2.1.7-4.2 1-6.5 1-10.7.2-14.8-6.5-14.8-15.5m21.3-21.3c-1.8-.5-4.7-1.1-8.2-1.1-13 0-21.1 8.6-21.1 22.4 0 13.9 8.1 22.4 21.1 22.4 3.5 0 6.4-.6 8.2-1h7.9V25.6h-7.9v11.2zm-39.6-.1h-7.9v36c-2.4.6-5.1.9-8 .9-10.8 0-11.8-5-11.8-14.1V36.7H211v23.5c0 12.4 3.1 20.3 18 20.3 4.3 0 7.7-.6 9.8-1h7.9l-.1-42.8zm-72-11.1v36.9c0 12.5 5.9 18.1 17.1 18.1 3.3 0 7-.5 10.2-1.9v-7.9c-2.7 1.8-5.7 2.7-9.3 2.7-6.5 0-10.1-3-10.1-11.7v-18h19.8v-7.1h-19.8V25.6h-7.9zm-42.7 51.3c3.8 2.4 9.7 3.6 15.4 3.6 10.5 0 17.7-4 17.7-13.1 0-8.5-6.2-11.1-14-12.7l-2.1-.4c-5.5-1.1-8.6-2.3-8.6-6.1 0-3.6 3.1-5.6 9.3-5.6 5.8 0 10.8 1.7 13.8 3.8v-8.3c-3.5-1.5-8.5-2.4-13.3-2.4-10.5 0-17.7 3.8-17.7 12.8 0 8.4 6.2 11 14 12.7l2.1.4c5.5 1.1 8.6 2.3 8.6 6.1 0 3.7-3 6-9.4 6-6.8.1-12.5-2.4-15.7-5l-.1 8.2z"/>
  <path class="st0" d="M12.6 32.8v3.8h6.8v42.9h8V34.9c6.7-2.1 15.2-4 24.1-4.6v49.2h10V30.3c9 .6 17.4 2.5 24.2 4.6h-.1v44.6h8V36.6h6.8v-3.8S78.7 22.5 56.3 22.5 12.6 32.8 12.6 32.8z"/>
  <path class="st1" d="M100.7 28.7S79.4 18.4 56.6 18.4s-44 10.3-44 10.3v-7.1L56.7 6.9l44 14.7v7.1z"/>
  <path class="st0" d="M12.6 83.8h88.1v7.3H12.6z"/>
</svg>
